<svg width="768" height="3984" viewBox="0 0 768 3984" fill="none" xmlns="http://www.w3.org/2000/svg">
<g clip-path="url(#clip0)">
<rect width="768" height="3984" fill="#08090F"/>
<path opacity="0.08" d="M755.593 2036.88C776.903 1995.71 835.791 1995.71 857.101 2036.88C872.066 2065.8 908.128 2076.38 936.35 2060.15C976.538 2037.03 1026.08 2068.87 1021.74 2115.03C1018.7 2147.45 1043.31 2175.85 1075.83 2177.45C1122.14 2179.73 1146.6 2233.3 1118 2269.79C1097.92 2295.41 1103.26 2332.61 1129.76 2351.54C1167.48 2378.49 1159.1 2436.78 1115.31 2452.02C1084.56 2462.71 1068.95 2496.9 1081 2527.15C1098.16 2570.21 1059.6 2614.72 1014.52 2603.86C982.872 2596.24 951.254 2616.56 945.041 2648.52C936.194 2694.03 879.692 2710.62 847.645 2677.11C825.139 2653.59 787.555 2653.59 765.05 2677.11C733.003 2710.62 676.5 2694.03 667.653 2648.52C661.44 2616.56 629.822 2596.24 598.17 2603.86C553.097 2614.72 514.534 2570.21 531.696 2527.15C543.748 2496.9 528.135 2462.71 497.385 2452.02C453.597 2436.78 445.217 2378.49 482.939 2351.54C509.43 2332.61 514.778 2295.41 494.693 2269.79C466.093 2233.3 490.556 2179.73 536.861 2177.45C569.38 2175.85 593.993 2147.45 590.95 2115.03C586.616 2068.87 636.156 2037.03 676.344 2060.15C704.566 2076.38 740.628 2065.8 755.593 2036.88Z" fill="white"/>
<path opacity="0.08" d="M89.3878 580.418C111.833 555.815 152.701 566.761 159.833 599.287C164.842 622.128 187.9 636.177 210.505 630.161C242.693 621.595 271.153 652.89 259.562 684.107C251.423 706.029 263.222 730.309 285.491 737.465C317.203 747.655 324.219 789.363 297.585 809.36C278.882 823.403 275.676 850.206 290.54 868.261C311.707 893.971 295.052 932.85 261.831 935.279C238.502 936.985 221.309 957.8 224.049 981.022C227.95 1014.09 192.912 1037.8 163.651 1021.89C143.103 1010.71 117.382 1018.93 107.127 1039.95C92.5244 1069.88 50.2273 1070.88 34.2168 1041.68C22.9734 1021.18 -3.10979 1014.19 -23.1032 1026.33C-51.5735 1043.61 -87.7005 1021.6 -85.3774 988.385C-83.746 965.059 -101.91 945.085 -125.294 944.491C-158.593 943.645 -177.08 905.603 -157.161 878.914C-143.173 860.173 -147.651 833.553 -167.002 820.415C-194.557 801.707 -189.534 759.713 -158.344 748.026C-136.44 739.82 -125.81 715.006 -134.984 693.495C-148.047 662.865 -121.109 630.252 -88.5493 637.277C-65.6839 642.211 -43.3212 627.081 -39.4052 604.028C-33.8288 571.2 6.47136 558.322 30.0625 581.829C46.6296 598.338 73.6253 597.695 89.3878 580.418Z" fill="white"/>
</g>
<defs>
<clipPath id="clip0">
<rect width="768" height="3984" fill="white"/>
</clipPath>
</defs>
</svg>
