<svg width="24" height="24" viewBox="0 0 24 24" fill="none" xmlns="http://www.w3.org/2000/svg">
<path d="M23.993 0H0.00703125C0.003148 0 0 0.003148 0 0.00703125V23.993C0 23.9969 0.003148 24 0.00703125 24H23.993C23.9969 24 24 23.9969 24 23.993V0.00703125C24 0.003148 23.9969 0 23.993 0Z" fill="#66E0B9"/>
<path d="M16.7438 13.9172C15.9469 13.9172 15.1969 13.5797 14.5219 13.0312L14.6859 12.2531L14.6906 12.225C14.8406 11.4 15.3047 10.0125 16.7438 10.0125C17.8219 10.0125 18.6984 10.889 18.6984 11.9672C18.6984 13.0453 17.8219 13.9172 16.7438 13.9172V13.9172ZM16.7438 8.03435C14.9063 8.03435 13.4859 9.22498 12.9047 11.189C12.0234 9.86248 11.3531 8.27341 10.9641 6.93279H8.98594V12.075C8.98594 13.0922 8.16094 13.9172 7.14375 13.9172C6.12656 13.9172 5.30156 13.0922 5.30156 12.075V6.9281H3.32812V12.0703C3.32812 14.175 5.03906 15.9047 7.14375 15.9047C9.24844 15.9047 10.9594 14.175 10.9594 12.0703V11.2078C11.3438 12.0094 11.8125 12.8203 12.3844 13.5328L11.175 19.2234H13.1953L14.0719 15.0984C14.8406 15.5906 15.7219 15.9 16.7344 15.9C18.9 15.9 20.6625 14.1281 20.6625 11.9578C20.6672 9.79685 18.9094 8.03435 16.7438 8.03435" fill="#08090F"/>
</svg>
